<svg xmlns="http://www.w3.org/2000/svg" xmlns:xlink="http://www.w3.org/1999/xlink" viewBox="0,0,256,256" width="48px" height="48px" fill-rule="nonzero"><g transform="translate(32,32) scale(0.75,0.75)"><g fill="none" fill-rule="nonzero" stroke="none" stroke-width="1" stroke-linecap="butt" stroke-linejoin="miter" stroke-miterlimit="10" stroke-dasharray="" stroke-dashoffset="0" font-family="none" font-weight="none" font-size="none" text-anchor="none" style="mix-blend-mode: normal"><g transform="translate(0,24) scale(5.33333,5.33333)"><path d="M41,5h-34l3,34l14,4l14,-4l3,-34z" fill="#0277bd"></path><path d="M24,8v31.9l11.2,-3.2l2.5,-28.7z" fill="#039be5"></path><path d="M33.1,13h-9.1v4h4.9l-0.3,4h-4.6v4h4.4l-0.3,4.5l-4.1,1.4v4.2l7.9,-2.6l0.7,-11.5v0z" fill="#ffffff"></path><path d="M24,13v4h-8.9l-0.3,-4zM19.4,21l0.2,4h4.4v-4zM19.8,27h-4l0.3,5.5l7.9,2.6v-4.2l-4.1,-1.4z" fill="#eeeeee"></path></g></g><g fill="#000000" fill-rule="nonzero" stroke="none" stroke-width="1" stroke-linecap="butt" stroke-linejoin="miter" stroke-miterlimit="10" stroke-dasharray="" stroke-dashoffset="0" font-family="none" font-weight="none" font-size="none" text-anchor="none" style="mix-blend-mode: normal"><g><path d="M93.37,9.49h11.49c-0.28667,6.48667 -2.11,11.39667 -5.47,14.73c-3.36,3.33333 -8.1,5 -14.22,5v0c-6.43333,0 -11.36333,-2.11667 -14.79,-6.35c-3.42,-4.22667 -5.13,-10.26 -5.13,-18.1v0v-9.57c0,-7.81333 1.77,-13.83667 5.31,-18.07c3.54,-4.23333 8.46,-6.35 14.76,-6.35v0c6.2,0 10.90667,1.73333 14.12,5.2c3.22,3.46 5.05,8.43333 5.49,14.92v0h-11.52c-0.10667,-4.00667 -0.72667,-6.77333 -1.86,-8.3c-1.12667,-1.52 -3.20333,-2.28 -6.23,-2.28v0c-3.07333,0 -5.24667,1.07333 -6.52,3.22c-1.27333,2.14667 -1.95,5.68 -2.03,10.6v0v10.75c0,5.64667 0.63,9.52667 1.89,11.64c1.26667,2.10667 3.43667,3.16 6.51,3.16v0c3.02,0 5.10333,-0.73667 6.25,-2.21c1.14667,-1.46667 1.79667,-4.13 1.95,-7.99zM135.95,13.52v0c0,-2.32 -0.59333,-4.07333 -1.78,-5.26c-1.18667,-1.18 -3.34,-2.41 -6.46,-3.69v0c-5.70667,-2.16 -9.81,-4.69 -12.31,-7.59c-2.5,-2.90667 -3.75,-6.34 -3.75,-10.3v0c0,-4.79333 1.7,-8.64 5.1,-11.54c3.4,-2.90667 7.71667,-4.36 12.95,-4.36v0c3.48667,0 6.59667,0.73667 9.33,2.21c2.74,1.47333 4.84333,3.55 6.31,6.23c1.47333,2.68 2.21,5.72667 2.21,9.14v0h-11.44c0,-2.65333 -0.56667,-4.67667 -1.7,-6.07c-1.13333,-1.39333 -2.77,-2.09 -4.91,-2.09v0c-2,0 -3.56,0.59333 -4.68,1.78c-1.12,1.18 -1.68,2.77333 -1.68,4.78v0c0,1.56 0.62333,2.97333 1.87,4.24c1.25333,1.26 3.46667,2.56667 6.64,3.92v0c5.54667,2.00667 9.57667,4.47 12.09,7.39c2.51333,2.91333 3.77,6.62333 3.77,11.13v0c0,4.94667 -1.57667,8.81333 -4.73,11.6c-3.14667,2.78667 -7.43,4.18 -12.85,4.18v0c-3.66667,0 -7.01333,-0.75333 -10.04,-2.26c-3.02,-1.51333 -5.38333,-3.67667 -7.09,-6.49c-1.7,-2.81333 -2.55,-6.13333 -2.55,-9.96v0h11.52c0,3.28 0.63667,5.66333 1.91,7.15c1.28,1.48667 3.36333,2.23 6.25,2.23v0c4.01333,0 6.02,-2.12333 6.02,-6.37zM179.15,13.52v0c0,-2.32 -0.59333,-4.07333 -1.78,-5.26c-1.18,-1.18 -3.33333,-2.41 -6.46,-3.69v0c-5.7,-2.16 -9.8,-4.69 -12.3,-7.59c-2.5,-2.90667 -3.75,-6.34 -3.75,-10.3v0c0,-4.79333 1.69667,-8.64 5.09,-11.54c3.4,-2.90667 7.71667,-4.36 12.95,-4.36v0c3.49333,0 6.60667,0.73667 9.34,2.21c2.73333,1.47333 4.83667,3.55 6.31,6.23c1.46667,2.68 2.2,5.72667 2.2,9.14v0h-11.44c0,-2.65333 -0.56667,-4.67667 -1.7,-6.07c-1.13333,-1.39333 -2.76667,-2.09 -4.9,-2.09v0c-2.00667,0 -3.57,0.59333 -4.69,1.78c-1.12,1.18 -1.68,2.77333 -1.68,4.78v0c0,1.56 0.62333,2.97333 1.87,4.24c1.25333,1.26 3.47,2.56667 6.65,3.92v0c5.54667,2.00667 9.57333,4.47 12.08,7.39c2.51333,2.91333 3.77,6.62333 3.77,11.13v0c0,4.94667 -1.57333,8.81333 -4.72,11.6c-3.15333,2.78667 -7.43667,4.18 -12.85,4.18v0c-3.67333,0 -7.02,-0.75333 -10.04,-2.26c-3.02,-1.51333 -5.38333,-3.67667 -7.09,-6.49c-1.70667,-2.81333 -2.56,-6.13333 -2.56,-9.96v0h11.52c0,3.28 0.64,5.66333 1.92,7.15c1.27333,1.48667 3.35667,2.23 6.25,2.23v0c4.00667,0 6.01,-2.12333 6.01,-6.37z"></path></g></g></g></svg>