<svg xmlns="http://www.w3.org/2000/svg" xmlns:xlink="http://www.w3.org/1999/xlink" viewBox="0,0,256,256" width="48px" height="48px" fill-rule="nonzero"><g transform="translate(25.6,25.6) scale(0.8,0.8)"><g fill="none" fill-rule="nonzero" stroke="none" stroke-width="1" stroke-linecap="butt" stroke-linejoin="miter" stroke-miterlimit="10" stroke-dasharray="" stroke-dashoffset="0" font-family="none" font-weight="none" font-size="none" text-anchor="none" style="mix-blend-mode: normal"><g transform="translate(0,24) scale(5.33333,5.33333)"><path d="M41,5h-34l3,34l14,4l14,-4l3,-34z" fill="#e65100"></path><path d="M24,8v31.9l11.2,-3.2l2.5,-28.7z" fill="#ff6d00"></path><path d="M24,25v-4h8.6l-0.7,11.5l-7.9,2.6v-4.2l4.1,-1.4l0.3,-4.5zM32.9,17l0.3,-4h-9.2v4z" fill="#ffffff"></path><path d="M24,30.9v4.2l-7.9,-2.6l-0.4,-5.5h4l0.2,2.5zM19.1,17h4.9v-4h-9.1l0.7,12h8.4v-4h-4.6z" fill="#eeeeee"></path></g></g><g fill="#000000" fill-rule="nonzero" stroke="none" stroke-width="1" stroke-linecap="butt" stroke-linejoin="miter" stroke-miterlimit="10" stroke-dasharray="" stroke-dashoffset="0" font-family="none" font-weight="none" font-size="none" text-anchor="none" style="mix-blend-mode: normal"><g><path d="M76.025,-23.10167v56.87h-11.44v-24.34h-16.96v24.34h-11.48v-56.87h11.48v23h16.96v-23zM120.955,-23.10167v9.57h-14.07v47.3h-11.52v-47.3h-13.83v-9.57zM127.555,-23.10167h15l10.74,41.13l10.7,-41.13h15v56.87h-11.52v-15.39l1.05,-23.71l-11.36,39.1h-7.82l-11.36,-39.1l1.05,23.71v15.39h-11.48zM199.705,-23.10167v47.34h20.15v9.53h-31.64v-56.87z"></path></g></g></g></svg>